<svg xmlns="http://www.w3.org/2000/svg" width="64" height="64" viewBox="0 0 64 64">
  <rect width="64" height="64" rx="14" fill="#1B4332"/>
  <ellipse cx="32" cy="44" rx="22" ry="8" fill="#2D6A4F"/>
  <path d="M10 32 Q10 50 32 54 Q54 50 54 32 Z" fill="#40916C"/>
  <path d="M10 32 Q10 38 32 42 Q54 38 54 32 Z" fill="#52B788"/>
  <ellipse cx="32" cy="30" rx="18" ry="7" fill="#FAF6EE"/>
  <ellipse cx="32" cy="28" rx="16" ry="6" fill="#FFF9F0"/>
  <ellipse cx="22" cy="25" rx="6" ry="3.5" fill="#52B788"/>
  <ellipse cx="19" cy="24" rx="4" ry="2.5" fill="#40916C"/>
  <ellipse cx="38" cy="24" rx="5.5" ry="2.5" fill="#F4A261"/>
  <ellipse cx="42" cy="25" rx="3.5" ry="2" fill="#E76F51"/>
  <circle cx="31" cy="27" r="4" fill="#FFF9F0"/>
  <circle cx="31" cy="27" r="2.5" fill="#F4A261"/>
  <line x1="44" y1="14" x2="39" y2="34" stroke="#8B6914" stroke-width="1.8" stroke-linecap="round"/>
  <line x1="49" y1="14" x2="44" y2="34" stroke="#8B6914" stroke-width="1.8" stroke-linecap="round"/>
  <path d="M20 21 Q22 15 20 10" fill="none" stroke="white" stroke-width="1.5" stroke-linecap="round" opacity="0.45"/>
  <path d="M28 19 Q30 13 28 8" fill="none" stroke="white" stroke-width="1.5" stroke-linecap="round" opacity="0.45"/>
  <path d="M36 20 Q38 14 36 9" fill="none" stroke="white" stroke-width="1.5" stroke-linecap="round" opacity="0.45"/>
</svg>
